<?xml version="1.0" encoding="utf-8"?>
<!-- Generator: Adobe Illustrator 17.0.0, SVG Export Plug-In . SVG Version: 6.00 Build 0)  -->
<!DOCTYPE svg PUBLIC "-//W3C//DTD SVG 1.0//EN" "http://www.w3.org/TR/2001/REC-SVG-20010904/DTD/svg10.dtd">
<svg version="1.0" id="Layer_1" xmlns="http://www.w3.org/2000/svg" xmlns:xlink="http://www.w3.org/1999/xlink" x="0px" y="0px"
	 width="259.848px" height="261.863px" viewBox="0 0 259.848 261.863" enable-background="new 0 0 259.848 261.863"
	 xml:space="preserve">
<g>
	<path d="M252.263,118.576c0,0-0.315-0.151-0.936-0.448c-0.31-0.148-0.697-0.334-1.159-0.555c-0.373-0.163-0.806-0.352-1.299-0.567
		c-2.009-0.846-5.243-2.122-9.598-2.965c-2.18-0.467-4.686-0.771-7.499-0.937c-2.813-0.175-5.949-0.144-9.391,0.142
		c-3.438,0.286-7.178,0.798-11.181,1.583c-4.003,0.812-8.269,1.875-12.76,3.203c-17.992,5.333-39.458,14.891-63.184,27.682
		c-2.978,1.576-5.972,3.255-9.025,4.926c-2.986,1.698-6.176,3.492-9.233,5.278c-3.095,1.782-6.226,3.632-9.399,5.513
		c-3.142,1.926-6.327,3.877-9.517,5.9c-6.408,4.003-12.833,8.319-19.285,12.853c-6.447,4.539-12.91,9.323-19.25,14.429
		c-6.302,5.139-12.531,10.55-18.343,16.384c-2.877,2.94-5.7,5.932-8.32,9.068c-2.633,3.126-5.026,6.411-7.225,9.766
		c-2.204,3.358-4.073,6.867-5.602,10.5l-0.146,0.34c0.012-0.04-0.233,0.569-0.011-0.003l-0.293,0.811
		c-0.152,0.394-0.056,0.236-0.062,0.253c0.011-0.005-0.002-0.058-0.002,0.024c-0.067,0.25-0.016,0.257-0.039,0.111
		c-0.013-0.142-0.114-0.422-0.212-0.564c-0.099-0.149-0.15-0.145-0.016-0.035c0.235,0.242,1.244,0.713,2.508,0.995
		c1.297,0.285,2.862,0.422,4.507,0.341c1.643-0.061,3.369-0.323,5.073-0.741c0.215-0.044,0.425-0.115,0.638-0.171l0.319-0.089
		c0.011,0.002,0.427-0.129,0.106-0.017l1.705-0.56c0.326-0.1,0.475-0.167,0.672-0.24l0.577-0.215
		c0.199-0.076,0.375-0.127,0.595-0.221l0.672-0.29c1.793-0.76,3.621-1.654,5.429-2.708c1.816-1.025,3.616-2.212,5.402-3.483
		c3.593-2.521,7.115-5.432,10.53-8.606c3.42-3.168,6.764-6.567,9.973-10.171c3.227-3.591,6.353-7.359,9.36-11.276
		c6.032-7.825,11.614-16.207,16.957-24.87c2.681-4.328,5.322-8.717,7.932-13.159c2.58-4.459,5.132-8.966,7.656-13.52
		c10.076-18.227,19.621-37.202,29.019-56.565c9.355-19.421,18.823-39.078,28.367-58.892c1.201-2.478,2.403-4.958,3.606-7.441
		l0.903-1.862c0.1-0.201-0.049,0.093,0.114-0.255c0.102-0.215,0.13-0.299,0.059-0.159c-0.082,0.193-0.047,0.091-0.105,0.259
		c-0.022,0.098-0.094,0.352-0.102,0.688c-0.02,0.396-0.003,0.934,0.215,1.699c0.214,0.762,0.7,1.809,1.598,2.722
		c0.882,0.923,2.138,1.6,3.25,1.844c1.122,0.26,2.065,0.186,2.771,0.032c0.712-0.16,1.22-0.401,1.606-0.639
		c0.748-0.461,1.043-0.884,1.203-1.114c0.079-0.133,0.118-0.207,0.139-0.265c0.055-0.142-0.11,0.231-0.154,0.321l-0.218,0.47
		l-0.871,1.882c-1.162,2.51-2.324,5.022-3.488,7.536c-4.686,10.042-9.386,20.113-14.095,30.205
		c-4.734,10.082-9.496,20.179-14.107,30.302c-4.601,10.129-9.365,20.261-13.659,30.467c-2.203,5.091-4.363,10.199-6.424,15.389
		l-3.102,7.725c-1.016,2.602-2.043,5.214-2.989,7.761c-1.922,5.128-3.842,10.318-5.513,15.542
		c-1.664,5.233-3.12,10.525-4.247,15.855c-1.179,5.302-2.097,10.677-2.738,15.807c-0.297,2.523-0.578,5.149-0.521,6.996l0.012,1.912
		c0.011,0.598,0.024,1.211,0.052,1.789c0.062,1.163,0.12,2.262,0.253,3.195c0.131,0.924,0.298,1.675,0.419,1.965
		c0.052,0.147,0.091,0.123,0.002-0.013c-0.08-0.138-0.288-0.435-0.616-0.725c-0.323-0.293-0.731-0.537-0.996-0.645
		c-0.275-0.106-0.395-0.109-0.359-0.093c0.02,0.022,0.252,0.036,0.52,0.047c0.15-0.001,0.302,0.004,0.497-0.011
		c0.419-0.04-0.287,0.048-0.002,0.013c0.143-0.015,0.48-0.056,0.172-0.022c-0.438,0.078-0.326,0.076-0.357,0.081
		c-0.002,0.008,0.05-0.01,0.116-0.03c0.14-0.045,0.406-0.175,0.702-0.338c0.605-0.331,1.389-0.877,2.191-1.51
		c1.626-1.282,3.348-2.961,5.066-4.713c3.44-3.552,6.769-7.612,10.005-11.764c3.266-4.145,6.429-8.446,9.529-12.803
		c6.238-8.698,12.231-17.627,18.081-26.597c11.713-17.946,22.624-36.207,32.98-54.378c5.196-9.08,9.572-18.501,14.084-27.735
		c4.436-9.275,8.7-18.527,12.886-27.694c4.196-9.161,8.346-18.223,12.447-27.177c2.089-4.457,4.166-8.886,6.23-13.287
		c1.052-2.19,2.101-4.374,3.146-6.55c0.488-1.019,0.975-2.035,1.462-3.051c0.029-0.07,0.196-0.427,0.111-0.261
		c-0.07,0.14-0.124,0.305-0.153,0.382c-0.055,0.184-0.161,0.518-0.204,1.109c-0.033,0.576-0.019,1.483,0.431,2.655
		c0.423,1.161,1.432,2.457,2.571,3.192c1.142,0.76,2.274,1.037,3.193,1.103c0.941,0.061,1.752-0.075,2.56-0.364
		c0.803-0.295,1.624-0.78,2.376-1.561c0.383-0.391,0.722-0.853,1.01-1.364c0.426-0.846,0.023-0.032,0.064-0.102
		c-0.504,1.085-1.008,2.169-1.51,3.25c-1.021,2.158-2.038,4.309-3.051,6.453c-2.087,4.267-4.158,8.503-6.214,12.707
		c-4.198,8.355-8.42,16.531-12.588,24.55c-8.326,16.041-16.21,31.579-22.827,46.842c-6.703,15.227-11.724,30.314-15.756,44.673
		c-2.021,7.181-3.819,14.191-5.187,21.069c-1.392,6.872-2.36,13.596-3.202,20.105c-0.183,1.632-0.442,3.238-0.605,4.845
		c-0.165,1.607-0.361,3.195-0.556,4.77c-0.164,1.58-0.326,3.146-0.487,4.699c-0.193,1.536-0.249,2.632-0.273,3.941
		c-0.042,2.52,0.187,5.017,0.637,6.835c0.21,0.916,0.503,1.595,0.664,1.916c0.079,0.126,0.117,0.174,0.049,0.103
		c-0.071-0.091-0.26-0.265-0.57-0.437c-0.308-0.198-0.7-0.343-1.033-0.391c-0.286-0.087-0.549-0.033-0.572-0.046l-0.027,0.012
		c-0.864,0.125-0.086,0.012-0.21,0.03l0.267-0.039c0.141-0.019,0.155-0.025,0.026-0.008c-0.147,0.02-0.292,0.057-0.429,0.109
		c-0.018,0.004,0.006-0.003,0.009,0.003c0.061-0.008,0.27-0.072,0.56-0.224c0.573-0.28,1.363-0.793,2.179-1.397
		c0.827-0.601,1.689-1.309,2.545-2.063c1.71-1.516,3.41-3.208,5.062-4.916c1.646-1.717,3.228-3.488,4.775-5.232
		c6.148-7.042,11.411-13.861,15.793-19.903c4.39-6.053,7.935-11.368,10.733-15.717c2.798-4.351,4.885-7.721,6.246-10.008
		c1.347-2.29,2.042-3.472,2.042-3.472l9.974,5.281c0,0-0.631,1.278-1.854,3.754c-1.239,2.462-3.068,6.109-5.567,10.8
		c-2.508,4.688-5.638,10.444-9.481,17.163c-3.878,6.707-8.34,14.422-14.225,22.809c-1.474,2.102-3.057,4.231-4.795,6.396
		c-1.729,2.174-3.612,4.367-5.813,6.58c-2.238,2.216-4.595,4.489-8.345,6.678c-0.94,0.543-2.023,1.082-3.303,1.564l-1.006,0.349
		c-0.484,0.142-0.975,0.269-1.47,0.379l-0.501,0.104l-0.265,0.05c-0.302,0.045,0.3-0.031-0.743,0.114l-0.566,0.05
		c-1.46,0.152-3.182,0.072-4.904-0.25c-1.759-0.364-3.53-1.04-5.113-1.981c-1.565-0.95-2.878-2.105-3.948-3.299
		c-1.049-1.193-1.842-2.396-2.508-3.576c-1.262-2.329-2.008-4.529-2.521-6.591c-1.014-4.143-1.274-7.929-1.254-11.765
		c0.011-1.873,0.153-3.986,0.339-5.667c0.189-1.667,0.381-3.349,0.573-5.046c0.438-3.388,0.983-6.821,1.628-10.294
		c1.296-6.944,3.058-14.024,5.066-21.221c2.028-7.193,4.295-14.518,6.976-21.877c5.359-14.735,12.313-29.516,19.144-44.966
		c6.916-15.421,14.061-31.423,21.327-47.999c3.631-8.289,7.353-16.69,11.177-25.19c1.939-4.231,3.894-8.494,5.862-12.788
		c1.001-2.143,2.006-4.294,3.014-6.453c0.51-1.078,1.021-2.158,1.533-3.239c0.172-0.338-0.119,0.197,0.456-0.909
		c0.427-0.776,0.956-1.473,1.539-2.086c1.17-1.211,2.512-2.02,3.876-2.525c1.369-0.502,2.788-0.719,4.326-0.621
		c1.518,0.1,3.241,0.561,4.885,1.652c1.648,1.058,3.037,2.856,3.678,4.575c0.67,1.733,0.743,3.253,0.672,4.426
		c-0.08,1.191-0.311,2.119-0.554,2.874c-0.113,0.368-0.282,0.811-0.461,1.231c-0.193,0.447-0.164,0.358-0.258,0.564
		c-0.58,1.146-1.161,2.293-1.743,3.443c-1.1,2.157-2.204,4.322-3.311,6.494c-2.274,4.314-4.562,8.655-6.865,13.023
		c-4.679,8.699-9.519,17.452-14.478,26.266c-4.968,8.808-9.989,17.711-15.059,26.7c-4.983,9.034-10.283,18.007-14.973,27.409
		c-9.433,18.779-19.077,37.863-29.33,57.049c-5.149,9.584-10.511,19.157-16.308,28.649c-2.926,4.731-5.963,9.439-9.194,14.117
		c-3.275,4.657-6.724,9.26-10.735,13.809c-2.018,2.282-4.198,4.51-6.837,6.724c-1.336,1.104-2.773,2.206-4.549,3.272
		c-0.895,0.531-1.849,1.054-2.984,1.538c-0.573,0.241-1.165,0.472-1.827,0.682c-0.688,0.212-1.246,0.384-2.364,0.583
		c-0.645,0.11-0.652,0.1-0.852,0.13c-0.057,0.017-1.109,0.112-1.034,0.1c-0.494,0.044-1.032,0.066-1.572,0.08
		c-1.111,0.013-2.266-0.006-3.612-0.201c-1.329-0.191-2.8-0.528-4.351-1.166c-1.54-0.638-3.147-1.611-4.495-2.834
		c-1.356-1.217-2.422-2.62-3.194-3.954c-0.779-1.334-1.294-2.635-1.663-3.806c-0.717-2.349-0.999-4.349-1.126-6.18
		c-0.119-1.826-0.135-3.5-0.057-5.109c0.034-0.808,0.085-1.581,0.142-2.369l0.098-1.2l0.115-1.043
		c0.091-0.85,0.226-1.759,0.347-2.631l0.465-2.388c0.346-1.516,0.698-3.02,1.115-4.444c1.582-5.758,3.548-11.136,5.471-16.526
		c1.955-5.331,3.912-10.668,5.87-16.008l2.861-7.993c0.981-2.653,1.941-5.306,2.971-7.965c1.01-2.683,2.039-5.264,3.065-7.861
		l3.093-7.849c1.039-2.605,2.02-5.217,3.107-7.816l3.214-7.808l3.184-7.822c1.061-2.608,2.186-5.163,3.275-7.748
		c2.172-5.166,4.343-10.33,6.514-15.492c4.295-10.359,8.677-20.615,13.048-30.856c4.389-10.234,8.769-20.449,13.136-30.633
		c1.1-2.543,2.199-5.083,3.297-7.622l0.823-1.904l0.483-1.097c0.319-0.681,0.685-1.367,1.16-2.066
		c0.926-1.378,2.209-2.812,4.139-3.991c0.983-0.584,2.133-1.099,3.52-1.408c1.378-0.303,3.029-0.398,4.824,0.024
		c1.783,0.403,3.667,1.428,5.029,2.847c1.38,1.408,2.203,3.081,2.605,4.507c0.403,1.431,0.471,2.663,0.436,3.749
		c-0.057,1.023-0.216,1.965-0.419,2.729c-0.217,0.839-0.408,1.391-0.752,2.222c-0.193,0.463-0.306,0.694-0.355,0.788l-0.335,0.676
		l-0.954,1.832c-1.271,2.443-2.542,4.884-3.811,7.322c-20.266,39.046-40.528,77.444-61.329,114.137
		c-2.607,4.585-5.246,9.131-7.918,13.636c-2.645,4.521-5.325,9.001-8.055,13.43c-5.487,8.844-11.099,17.523-16.895,26.042
		c-2.91,4.252-5.865,8.467-8.944,12.605c-3.105,4.117-6.31,8.177-9.749,12.089c-6.88,7.785-14.627,15.223-24.767,20.519
		c-1.152,0.625-2.852,1.354-4.086,1.879l-1.669,0.658l-0.747,0.255l-0.536,0.176c-0.359,0.114-0.713,0.24-1.078,0.338
		c-2.894,0.839-5.866,1.458-8.954,1.669c-3.08,0.23-6.265,0.121-9.584-0.504c-3.316-0.696-6.833-1.829-10.338-4.415
		c-1.728-1.289-3.429-2.979-4.772-5.093c-1.346-2.102-2.262-4.605-2.608-7.037c-0.359-2.435-0.21-4.776,0.212-6.779
		c0.08-0.491,0.246-1.094,0.402-1.656c0.15-0.537,0.373-1.258,0.436-1.4l0.293-0.811c0.319-0.843,0.199-0.494,0.32-0.799
		l0.193-0.452c2.032-4.838,4.485-9.396,7.236-13.597c2.733-4.221,5.802-8.065,8.947-11.683c3.161-3.609,6.434-6.981,9.814-10.117
		c3.37-3.146,6.811-6.078,10.258-8.898c3.458-2.811,6.969-5.422,10.448-7.986c13.974-10.144,27.952-18.578,41.268-26.424
		c3.327-1.967,6.637-3.852,9.899-5.717c3.251-1.875,6.462-3.721,9.661-5.513c6.344-3.557,12.54-6.985,18.591-10.274
		c24.193-13.103,46.088-23.455,65.436-29.9c4.844-1.591,9.517-2.955,14.016-4.046c4.51-1.065,8.838-1.874,12.954-2.397
		c8.223-1.097,15.62-0.905,21.584-0.107c2.984,0.399,5.615,0.941,7.851,1.522c1.12,0.285,2.152,0.552,3.074,0.847
		c0.926,0.279,1.76,0.529,2.555,0.821c0.769,0.274,1.445,0.515,2.027,0.722c0.479,0.182,0.879,0.335,1.201,0.458
		c0.643,0.245,0.97,0.37,0.97,0.37L252.263,118.576z"/>
</g>
</svg>
